<?xml version="1.0" encoding="UTF-8" standalone="no"?>
<!DOCTYPE svg PUBLIC "-//W3C//DTD SVG 1.1//EN"
 "http://www.w3.org/Graphics/SVG/1.1/DTD/svg11.dtd">
<!-- Generated by graphviz version 12.0.0 (0)
 -->
<!-- Title: G Pages: 1 -->
<svg width="1789pt" height="980pt"
 viewBox="0.00 0.00 1789.18 980.00" xmlns="http://www.w3.org/2000/svg" xmlns:xlink="http://www.w3.org/1999/xlink">
<g id="graph0" class="graph" transform="scale(1 1) rotate(0) translate(4 976)">
<title>G</title>
<polygon fill="white" stroke="none" points="-4,4 -4,-976 1785.18,-976 1785.18,4 -4,4"/>
<!-- step_1 -->
<g id="node1" class="node">
<title>step_1</title>
<polygon fill="orange" stroke="black" points="266.93,-900 165.43,-900 165.43,-864 266.93,-864 266.93,-900"/>
<text text-anchor="middle" x="216.18" y="-876.95" font-family="Times,serif" font-size="14.00">S1: SRA Dump</text>
</g>
<!-- fastq -->
<g id="node3" class="node">
<title>fastq</title>
<polygon fill="green" stroke="black" points="216.18,-828 175.41,-810 216.18,-792 256.96,-810 216.18,-828"/>
<text text-anchor="middle" x="216.18" y="-804.95" font-family="Times,serif" font-size="14.00">fastq</text>
</g>
<!-- step_1&#45;&gt;fastq -->
<g id="edge2" class="edge">
<title>step_1&#45;&gt;fastq</title>
<path fill="none" stroke="black" d="M216.18,-863.7C216.18,-856.41 216.18,-847.73 216.18,-839.54"/>
<polygon fill="black" stroke="black" points="219.68,-839.62 216.18,-829.62 212.68,-839.62 219.68,-839.62"/>
</g>
<!-- sra -->
<g id="node2" class="node">
<title>sra</title>
<polygon fill="orange" stroke="black" points="216.18,-972 70.46,-954 216.18,-936 361.91,-954 216.18,-972"/>
<text text-anchor="middle" x="216.18" y="-948.95" font-family="Times,serif" font-size="14.00">sra_reads &#39;read_files_sra&#39;</text>
</g>
<!-- sra&#45;&gt;step_1 -->
<g id="edge1" class="edge">
<title>sra&#45;&gt;step_1</title>
<path fill="none" stroke="black" d="M216.18,-935.7C216.18,-928.41 216.18,-919.73 216.18,-911.54"/>
<polygon fill="black" stroke="black" points="219.68,-911.62 216.18,-901.62 212.68,-911.62 219.68,-911.62"/>
</g>
<!-- S1p: FastQC -->
<g id="node4" class="node">
<title>S1p: FastQC</title>
<polygon fill="none" stroke="black" points="238.06,-756 152.31,-756 152.31,-720 238.06,-720 238.06,-756"/>
<text text-anchor="middle" x="195.18" y="-732.95" font-family="Times,serif" font-size="14.00">S1p: FastQC</text>
</g>
<!-- fastq&#45;&gt;S1p: FastQC -->
<g id="edge3" class="edge">
<title>fastq&#45;&gt;S1p: FastQC</title>
<path fill="none" stroke="black" d="M211.63,-793.81C209.29,-786.01 206.36,-776.25 203.62,-767.13"/>
<polygon fill="black" stroke="black" points="206.98,-766.15 200.76,-757.58 200.28,-768.16 206.98,-766.15"/>
</g>
<!-- s2_hisat2 -->
<g id="node6" class="node">
<title>s2_hisat2</title>
<polygon fill="green" stroke="black" points="752.56,-756 669.81,-756 669.81,-720 752.56,-720 752.56,-756"/>
<text text-anchor="middle" x="711.18" y="-732.95" font-family="Times,serif" font-size="14.00">S2: HISAT2</text>
</g>
<!-- fastq&#45;&gt;s2_hisat2 -->
<g id="edge6" class="edge">
<title>fastq&#45;&gt;s2_hisat2</title>
<path fill="none" stroke="black" d="M246.03,-804.78C327.53,-793.25 554.63,-761.14 658.33,-746.47"/>
<polygon fill="black" stroke="black" points="658.55,-749.98 667.96,-745.11 657.57,-743.05 658.55,-749.98"/>
</g>
<!-- fastqc -->
<g id="node5" class="node">
<title>fastqc</title>
<polygon fill="none" stroke="black" points="126.18,-324 0,-306 126.18,-288 252.37,-306 126.18,-324"/>
<text text-anchor="middle" x="126.18" y="-300.95" font-family="Times,serif" font-size="14.00">fastqc &#39;fastqc_results&#39;</text>
</g>
<!-- S1p: FastQC&#45;&gt;fastqc -->
<g id="edge4" class="edge">
<title>S1p: FastQC&#45;&gt;fastqc</title>
<path fill="none" stroke="black" d="M192.96,-719.55C189.74,-692.79 184.18,-640 184.18,-595 184.18,-595 184.18,-595 184.18,-449 184.18,-405.55 160.62,-359.81 143.54,-332.34"/>
<polygon fill="black" stroke="black" points="146.54,-330.54 138.19,-324.02 140.65,-334.33 146.54,-330.54"/>
</g>
<!-- s6_multiqc -->
<g id="node32" class="node">
<title>s6_multiqc</title>
<polygon fill="none" stroke="black" points="733.81,-108 646.56,-108 646.56,-72 733.81,-72 733.81,-108"/>
<text text-anchor="middle" x="690.18" y="-84.95" font-family="Times,serif" font-size="14.00">S6: MultiQC</text>
</g>
<!-- fastqc&#45;&gt;s6_multiqc -->
<g id="edge34" class="edge">
<title>fastqc&#45;&gt;s6_multiqc</title>
<path fill="none" stroke="black" d="M132.12,-288.53C145.22,-254.85 180.03,-178.4 237.18,-144 302.98,-104.39 529.16,-94.38 634.89,-91.85"/>
<polygon fill="black" stroke="black" points="634.82,-95.35 644.74,-91.63 634.66,-88.36 634.82,-95.35"/>
</g>
<!-- s4_nqc -->
<g id="node43" class="node">
<title>s4_nqc</title>
<polygon fill="none" stroke="black" points="567.18,-252 513.18,-252 513.18,-216 567.18,-216 567.18,-252"/>
<text text-anchor="middle" x="540.18" y="-228.95" font-family="Times,serif" font-size="14.00">NQC</text>
</g>
<!-- fastqc&#45;&gt;s4_nqc -->
<g id="edge57" class="edge">
<title>fastqc&#45;&gt;s4_nqc</title>
<path fill="none" stroke="black" d="M189.39,-296.52C257.84,-287.02 370.12,-270.5 466.18,-252 477.83,-249.76 490.44,-246.99 501.89,-244.34"/>
<polygon fill="black" stroke="black" points="502.46,-247.8 511.4,-242.11 500.86,-240.99 502.46,-247.8"/>
</g>
<!-- trimmed_reads_fastqc -->
<g id="node8" class="node">
<title>trimmed_reads_fastqc</title>
<polygon fill="none" stroke="black" points="1429.18,-612 1296.49,-594 1429.18,-576 1561.88,-594 1429.18,-612"/>
<text text-anchor="middle" x="1429.18" y="-588.95" font-family="Times,serif" font-size="14.00">trimmed_reads_fastqc</text>
</g>
<!-- s2_hisat2&#45;&gt;trimmed_reads_fastqc -->
<g id="edge7" class="edge">
<title>s2_hisat2&#45;&gt;trimmed_reads_fastqc</title>
<path fill="none" stroke="black" d="M752.89,-728.75C873.24,-704.95 1221.69,-636.04 1365.73,-607.55"/>
<polygon fill="black" stroke="black" points="1366.35,-610.99 1375.49,-605.62 1365,-604.13 1366.35,-610.99"/>
</g>
<!-- hisat2_sam -->
<g id="node9" class="node">
<title>hisat2_sam</title>
<polygon fill="green" stroke="black" points="774.18,-684 699.39,-666 774.18,-648 848.98,-666 774.18,-684"/>
<text text-anchor="middle" x="774.18" y="-660.95" font-family="Times,serif" font-size="14.00">hisat2_sam</text>
</g>
<!-- s2_hisat2&#45;&gt;hisat2_sam -->
<g id="edge8" class="edge">
<title>s2_hisat2&#45;&gt;hisat2_sam</title>
<path fill="none" stroke="black" d="M726.76,-719.7C734.9,-710.65 744.98,-699.45 753.74,-689.71"/>
<polygon fill="black" stroke="black" points="756.23,-692.18 760.32,-682.4 751.03,-687.5 756.23,-692.18"/>
</g>
<!-- S2p: FastQC -->
<g id="node10" class="node">
<title>S2p: FastQC</title>
<polygon fill="green" stroke="black" points="628.06,-684 542.31,-684 542.31,-648 628.06,-648 628.06,-684"/>
<text text-anchor="middle" x="585.18" y="-660.95" font-family="Times,serif" font-size="14.00">S2p: FastQC</text>
</g>
<!-- s2_hisat2&#45;&gt;S2p: FastQC -->
<g id="edge9" class="edge">
<title>s2_hisat2&#45;&gt;S2p: FastQC</title>
<path fill="none" stroke="black" d="M679.71,-719.52C663.51,-710.51 643.55,-699.42 626.15,-689.76"/>
<polygon fill="black" stroke="black" points="628.02,-686.79 617.58,-685 624.62,-692.91 628.02,-686.79"/>
</g>
<!-- hisat2_indices -->
<g id="node7" class="node">
<title>hisat2_indices</title>
<polygon fill="green" stroke="black" points="711.18,-828 621.19,-810 711.18,-792 801.18,-810 711.18,-828"/>
<text text-anchor="middle" x="711.18" y="-804.95" font-family="Times,serif" font-size="14.00">hisat2_indices</text>
</g>
<!-- hisat2_indices&#45;&gt;s2_hisat2 -->
<g id="edge5" class="edge">
<title>hisat2_indices&#45;&gt;s2_hisat2</title>
<path fill="none" stroke="black" d="M711.18,-791.7C711.18,-784.41 711.18,-775.73 711.18,-767.54"/>
<polygon fill="black" stroke="black" points="714.68,-767.62 711.18,-757.62 707.68,-767.62 714.68,-767.62"/>
</g>
<!-- trimmed_reads_fastqc&#45;&gt;s6_multiqc -->
<g id="edge35" class="edge">
<title>trimmed_reads_fastqc&#45;&gt;s6_multiqc</title>
<path fill="none" stroke="black" d="M1483.03,-582.91C1581.63,-562.88 1781.18,-514.51 1781.18,-451 1781.18,-451 1781.18,-451 1781.18,-233 1781.18,-127.45 967.78,-98.31 745.65,-92.32"/>
<polygon fill="black" stroke="black" points="745.91,-88.82 735.82,-92.06 745.72,-95.82 745.91,-88.82"/>
</g>
<!-- s3_samtools -->
<g id="node12" class="node">
<title>s3_samtools</title>
<polygon fill="green" stroke="black" points="847.56,-612 758.81,-612 758.81,-576 847.56,-576 847.56,-612"/>
<text text-anchor="middle" x="803.18" y="-588.95" font-family="Times,serif" font-size="14.00">S3: Samtools</text>
</g>
<!-- hisat2_sam&#45;&gt;s3_samtools -->
<g id="edge14" class="edge">
<title>hisat2_sam&#45;&gt;s3_samtools</title>
<path fill="none" stroke="black" d="M780.76,-649.12C784,-641.32 787.98,-631.69 791.7,-622.73"/>
<polygon fill="black" stroke="black" points="794.85,-624.27 795.44,-613.69 788.38,-621.59 794.85,-624.27"/>
</g>
<!-- fastqc2 -->
<g id="node11" class="node">
<title>fastqc2</title>
<polygon fill="green" stroke="black" points="474.18,-540 348,-522 474.18,-504 600.37,-522 474.18,-540"/>
<text text-anchor="middle" x="474.18" y="-516.95" font-family="Times,serif" font-size="14.00">fastqc &#39;fastqc_results&#39;</text>
</g>
<!-- S2p: FastQC&#45;&gt;fastqc2 -->
<g id="edge10" class="edge">
<title>S2p: FastQC&#45;&gt;fastqc2</title>
<path fill="none" stroke="black" d="M571.57,-647.59C551.91,-622.44 515.49,-575.84 493.18,-547.31"/>
<polygon fill="black" stroke="black" points="496.06,-545.3 487.14,-539.57 490.54,-549.61 496.06,-545.3"/>
</g>
<!-- fastqc2&#45;&gt;s6_multiqc -->
<g id="edge36" class="edge">
<title>fastqc2&#45;&gt;s6_multiqc</title>
<path fill="none" stroke="black" d="M458.75,-505.78C405.89,-452.82 237.14,-276.53 270.18,-216 298.54,-164.06 327.03,-165.45 382.18,-144 466.57,-111.19 571.8,-98.63 634.86,-93.87"/>
<polygon fill="black" stroke="black" points="634.89,-97.37 644.61,-93.17 634.39,-90.39 634.89,-97.37"/>
</g>
<!-- sorted_bam_ch -->
<g id="node13" class="node">
<title>sorted_bam_ch</title>
<polygon fill="green" stroke="black" points="685.18,-468 589.4,-450 685.18,-432 780.97,-450 685.18,-468"/>
<text text-anchor="middle" x="685.18" y="-444.95" font-family="Times,serif" font-size="14.00">sorted_bam_ch</text>
</g>
<!-- s3_samtools&#45;&gt;sorted_bam_ch -->
<g id="edge11" class="edge">
<title>s3_samtools&#45;&gt;sorted_bam_ch</title>
<path fill="none" stroke="black" d="M788.71,-575.59C767.61,-550.19 728.34,-502.93 704.7,-474.49"/>
<polygon fill="black" stroke="black" points="707.67,-472.58 698.58,-467.13 702.28,-477.05 707.67,-472.58"/>
</g>
<!-- cram_ch -->
<g id="node14" class="node">
<title>cram_ch</title>
<polygon fill="green" stroke="black" points="1522.18,-540 1461.14,-522 1522.18,-504 1583.22,-522 1522.18,-540"/>
<text text-anchor="middle" x="1522.18" y="-516.95" font-family="Times,serif" font-size="14.00">cram_ch</text>
</g>
<!-- s3_samtools&#45;&gt;cram_ch -->
<g id="edge12" class="edge">
<title>s3_samtools&#45;&gt;cram_ch</title>
<path fill="none" stroke="black" d="M847.93,-591.76C953.67,-588.3 1227.02,-576.31 1452.18,-540 1461.49,-538.5 1471.38,-536.41 1480.71,-534.21"/>
<polygon fill="black" stroke="black" points="1481.38,-537.65 1490.26,-531.86 1479.71,-530.85 1481.38,-537.65"/>
</g>
<!-- millions_mapped -->
<g id="node15" class="node">
<title>millions_mapped</title>
<polygon fill="green" stroke="black" points="881.18,-540 773.82,-522 881.18,-504 988.55,-522 881.18,-540"/>
<text text-anchor="middle" x="881.18" y="-516.95" font-family="Times,serif" font-size="14.00">millions_mapped</text>
</g>
<!-- s3_samtools&#45;&gt;millions_mapped -->
<g id="edge13" class="edge">
<title>s3_samtools&#45;&gt;millions_mapped</title>
<path fill="none" stroke="black" d="M822.46,-575.7C832.72,-566.5 845.44,-555.08 856.41,-545.23"/>
<polygon fill="black" stroke="black" points="858.53,-548.03 863.63,-538.75 853.85,-542.82 858.53,-548.03"/>
</g>
<!-- s4_picard -->
<g id="node16" class="node">
<title>s4_picard</title>
<polygon fill="none" stroke="black" points="597.31,-396 525.06,-396 525.06,-360 597.31,-360 597.31,-396"/>
<text text-anchor="middle" x="561.18" y="-372.95" font-family="Times,serif" font-size="14.00">S4: Picard</text>
</g>
<!-- sorted_bam_ch&#45;&gt;s4_picard -->
<g id="edge15" class="edge">
<title>sorted_bam_ch&#45;&gt;s4_picard</title>
<path fill="none" stroke="black" d="M662.15,-436C645.25,-426.46 621.86,-413.26 601.85,-401.96"/>
<polygon fill="black" stroke="black" points="603.79,-399.03 593.36,-397.17 600.35,-405.13 603.79,-399.03"/>
</g>
<!-- s4p_preseq -->
<g id="node18" class="node">
<title>s4p_preseq</title>
<polygon fill="none" stroke="black" points="715.43,-396 634.93,-396 634.93,-360 715.43,-360 715.43,-396"/>
<text text-anchor="middle" x="675.18" y="-372.95" font-family="Times,serif" font-size="14.00">S4p: Preseq</text>
</g>
<!-- sorted_bam_ch&#45;&gt;s4p_preseq -->
<g id="edge17" class="edge">
<title>sorted_bam_ch&#45;&gt;s4p_preseq</title>
<path fill="none" stroke="black" d="M682.76,-432.05C681.71,-424.68 680.45,-415.84 679.26,-407.51"/>
<polygon fill="black" stroke="black" points="682.74,-407.18 677.87,-397.77 675.81,-408.17 682.74,-407.18"/>
</g>
<!-- s4pp_rseqc -->
<g id="node20" class="node">
<title>s4pp_rseqc</title>
<polygon fill="none" stroke="black" points="826.43,-396 733.93,-396 733.93,-360 826.43,-360 826.43,-396"/>
<text text-anchor="middle" x="780.18" y="-372.95" font-family="Times,serif" font-size="14.00">S4pp: RSeQC</text>
</g>
<!-- sorted_bam_ch&#45;&gt;s4pp_rseqc -->
<g id="edge19" class="edge">
<title>sorted_bam_ch&#45;&gt;s4pp_rseqc</title>
<path fill="none" stroke="black" d="M703.95,-435.17C716.37,-426.02 732.99,-413.77 747.54,-403.05"/>
<polygon fill="black" stroke="black" points="749.55,-405.92 755.52,-397.17 745.39,-400.29 749.55,-405.92"/>
</g>
<!-- s4ppp_pileup -->
<g id="node22" class="node">
<title>s4ppp_pileup</title>
<polygon fill="none" stroke="black" points="463.43,-396 370.93,-396 370.93,-360 463.43,-360 463.43,-396"/>
<text text-anchor="middle" x="417.18" y="-372.95" font-family="Times,serif" font-size="14.00">S4ppp: Pileup</text>
</g>
<!-- sorted_bam_ch&#45;&gt;s4ppp_pileup -->
<g id="edge21" class="edge">
<title>sorted_bam_ch&#45;&gt;s4ppp_pileup</title>
<path fill="none" stroke="black" d="M646.21,-438.82C601.18,-427.06 526.63,-407.59 474.87,-394.07"/>
<polygon fill="black" stroke="black" points="475.89,-390.72 465.33,-391.58 474.12,-397.49 475.89,-390.72"/>
</g>
<!-- s5_bedgraphs -->
<g id="node24" class="node">
<title>s5_bedgraphs</title>
<polygon fill="none" stroke="black" points="939.93,-396 844.43,-396 844.43,-360 939.93,-360 939.93,-396"/>
<text text-anchor="middle" x="892.18" y="-372.95" font-family="Times,serif" font-size="14.00">S5: Bedgraphs</text>
</g>
<!-- sorted_bam_ch&#45;&gt;s5_bedgraphs -->
<g id="edge23" class="edge">
<title>sorted_bam_ch&#45;&gt;s5_bedgraphs</title>
<path fill="none" stroke="black" d="M718.44,-437.75C749.33,-427.31 796.04,-411.51 833.24,-398.93"/>
<polygon fill="black" stroke="black" points="834.17,-402.31 842.53,-395.79 831.93,-395.68 834.17,-402.31"/>
</g>
<!-- s5p_bigwig -->
<g id="node26" class="node">
<title>s5p_bigwig</title>
<polygon fill="green" stroke="black" points="1477.81,-468 1390.56,-468 1390.56,-432 1477.81,-432 1477.81,-468"/>
<text text-anchor="middle" x="1434.18" y="-444.95" font-family="Times,serif" font-size="14.00">S5p: BigWig</text>
</g>
<!-- cram_ch&#45;&gt;s5p_bigwig -->
<g id="edge26" class="edge">
<title>cram_ch&#45;&gt;s5p_bigwig</title>
<path fill="none" stroke="black" d="M1506.45,-508.49C1494.93,-499.32 1478.94,-486.6 1464.92,-475.45"/>
<polygon fill="black" stroke="black" points="1467.25,-472.83 1457.24,-469.34 1462.89,-478.31 1467.25,-472.83"/>
</g>
<!-- s10_multicov -->
<g id="node39" class="node">
<title>s10_multicov</title>
<polygon fill="none" stroke="black" points="1653.06,-468 1555.31,-468 1555.31,-432 1653.06,-432 1653.06,-468"/>
<text text-anchor="middle" x="1604.18" y="-444.95" font-family="Times,serif" font-size="14.00">S10: MultiCov</text>
</g>
<!-- cram_ch&#45;&gt;s10_multicov -->
<g id="edge51" class="edge">
<title>cram_ch&#45;&gt;s10_multicov</title>
<path fill="none" stroke="black" d="M1537.22,-508.16C1547.89,-499.05 1562.55,-486.54 1575.42,-475.55"/>
<polygon fill="black" stroke="black" points="1577.5,-478.38 1582.84,-469.22 1572.96,-473.05 1577.5,-478.38"/>
</g>
<!-- millions_mapped&#45;&gt;s5_bedgraphs -->
<g id="edge24" class="edge">
<title>millions_mapped&#45;&gt;s5_bedgraphs</title>
<path fill="none" stroke="black" d="M882.51,-503.87C884.36,-479.99 887.74,-436.38 889.97,-407.54"/>
<polygon fill="black" stroke="black" points="893.45,-407.94 890.74,-397.7 886.47,-407.4 893.45,-407.94"/>
</g>
<!-- picard_metrics -->
<g id="node17" class="node">
<title>picard_metrics</title>
<polygon fill="none" stroke="black" points="540.18,-324 446.57,-306 540.18,-288 633.8,-306 540.18,-324"/>
<text text-anchor="middle" x="540.18" y="-300.95" font-family="Times,serif" font-size="14.00">picard_metrics</text>
</g>
<!-- s4_picard&#45;&gt;picard_metrics -->
<g id="edge16" class="edge">
<title>s4_picard&#45;&gt;picard_metrics</title>
<path fill="none" stroke="black" d="M555.99,-359.7C553.66,-351.93 550.86,-342.58 548.26,-333.93"/>
<polygon fill="black" stroke="black" points="551.69,-333.17 545.46,-324.59 544.98,-335.18 551.69,-333.17"/>
</g>
<!-- picard_metrics&#45;&gt;s6_multiqc -->
<g id="edge37" class="edge">
<title>picard_metrics&#45;&gt;s6_multiqc</title>
<path fill="none" stroke="black" d="M527.32,-290.08C503.97,-262.6 456.25,-204.58 448.18,-180 443.19,-164.8 438.15,-156.47 448.18,-144 471.17,-115.43 570.9,-101.41 634.94,-95.23"/>
<polygon fill="black" stroke="black" points="634.92,-98.74 644.56,-94.34 634.28,-91.77 634.92,-98.74"/>
</g>
<!-- picard_metrics&#45;&gt;s4_nqc -->
<g id="edge55" class="edge">
<title>picard_metrics&#45;&gt;s4_nqc</title>
<path fill="none" stroke="black" d="M540.18,-287.7C540.18,-280.41 540.18,-271.73 540.18,-263.54"/>
<polygon fill="black" stroke="black" points="543.68,-263.62 540.18,-253.62 536.68,-263.62 543.68,-263.62"/>
</g>
<!-- preseq_results -->
<g id="node19" class="node">
<title>preseq_results</title>
<polygon fill="none" stroke="black" points="675.18,-252 585.19,-234 675.18,-216 765.18,-234 675.18,-252"/>
<text text-anchor="middle" x="675.18" y="-228.95" font-family="Times,serif" font-size="14.00">preseq_results</text>
</g>
<!-- s4p_preseq&#45;&gt;preseq_results -->
<g id="edge18" class="edge">
<title>s4p_preseq&#45;&gt;preseq_results</title>
<path fill="none" stroke="black" d="M675.18,-359.59C675.18,-335.61 675.18,-292.14 675.18,-263.42"/>
<polygon fill="black" stroke="black" points="678.68,-263.62 675.18,-253.62 671.68,-263.62 678.68,-263.62"/>
</g>
<!-- preseq_results&#45;&gt;s6_multiqc -->
<g id="edge38" class="edge">
<title>preseq_results&#45;&gt;s6_multiqc</title>
<path fill="none" stroke="black" d="M666.51,-217.4C657.7,-199.49 646.39,-169.34 654.18,-144 657.07,-134.63 662.23,-125.42 667.77,-117.39"/>
<polygon fill="black" stroke="black" points="670.52,-119.56 673.67,-109.44 664.9,-115.38 670.52,-119.56"/>
</g>
<!-- rseqc_results -->
<g id="node21" class="node">
<title>rseqc_results</title>
<polygon fill="none" stroke="black" points="746.18,-180 662.7,-162 746.18,-144 829.66,-162 746.18,-180"/>
<text text-anchor="middle" x="746.18" y="-156.95" font-family="Times,serif" font-size="14.00">rseqc_results</text>
</g>
<!-- s4pp_rseqc&#45;&gt;rseqc_results -->
<g id="edge20" class="edge">
<title>s4pp_rseqc&#45;&gt;rseqc_results</title>
<path fill="none" stroke="black" d="M782.02,-359.71C784.65,-329.81 787.79,-266.8 774.18,-216 771.58,-206.28 766.95,-196.34 762.19,-187.74"/>
<polygon fill="black" stroke="black" points="765.32,-186.15 757.23,-179.31 759.29,-189.7 765.32,-186.15"/>
</g>
<!-- rseqc_results&#45;&gt;s6_multiqc -->
<g id="edge39" class="edge">
<title>rseqc_results&#45;&gt;s6_multiqc</title>
<path fill="none" stroke="black" d="M734.31,-146.15C727.59,-137.76 719,-127.02 711.19,-117.25"/>
<polygon fill="black" stroke="black" points="713.94,-115.1 704.96,-109.47 708.48,-119.47 713.94,-115.1"/>
</g>
<!-- pileup_results -->
<g id="node23" class="node">
<title>pileup_results</title>
<polygon fill="none" stroke="black" points="368.18,-252 279.64,-234 368.18,-216 456.73,-234 368.18,-252"/>
<text text-anchor="middle" x="368.18" y="-228.95" font-family="Times,serif" font-size="14.00">pileup_results</text>
</g>
<!-- s4ppp_pileup&#45;&gt;pileup_results -->
<g id="edge22" class="edge">
<title>s4ppp_pileup&#45;&gt;pileup_results</title>
<path fill="none" stroke="black" d="M411.18,-359.59C402.77,-335.24 387.44,-290.81 377.54,-262.11"/>
<polygon fill="black" stroke="black" points="380.85,-260.98 374.28,-252.67 374.23,-263.26 380.85,-260.98"/>
</g>
<!-- pileup_results&#45;&gt;s6_multiqc -->
<g id="edge40" class="edge">
<title>pileup_results&#45;&gt;s6_multiqc</title>
<path fill="none" stroke="black" d="M372.24,-216.32C378.12,-195.92 391.03,-161.89 415.18,-144 449.32,-118.71 565.02,-103.25 635,-95.98"/>
<polygon fill="black" stroke="black" points="635.14,-99.49 644.74,-95 634.44,-92.52 635.14,-99.49"/>
</g>
<!-- bedgraph_results -->
<g id="node25" class="node">
<title>bedgraph_results</title>
<polygon fill="none" stroke="black" points="954.18,-324 849.71,-306 954.18,-288 1058.65,-306 954.18,-324"/>
<text text-anchor="middle" x="954.18" y="-300.95" font-family="Times,serif" font-size="14.00">bedgraph_results</text>
</g>
<!-- s5_bedgraphs&#45;&gt;bedgraph_results -->
<g id="edge25" class="edge">
<title>s5_bedgraphs&#45;&gt;bedgraph_results</title>
<path fill="none" stroke="black" d="M907.51,-359.7C915.42,-350.77 925.17,-339.76 933.71,-330.11"/>
<polygon fill="black" stroke="black" points="936.12,-332.68 940.13,-322.87 930.88,-328.04 936.12,-332.68"/>
</g>
<!-- s5ppp_igv -->
<g id="node30" class="node">
<title>s5ppp_igv</title>
<polygon fill="none" stroke="black" points="1434.18,-252 1352.18,-252 1352.18,-216 1434.18,-216 1434.18,-252"/>
<text text-anchor="middle" x="1393.18" y="-228.95" font-family="Times,serif" font-size="14.00">S5ppp: IGV</text>
</g>
<!-- bedgraph_results&#45;&gt;s5ppp_igv -->
<g id="edge32" class="edge">
<title>bedgraph_results&#45;&gt;s5ppp_igv</title>
<path fill="none" stroke="black" d="M1006.7,-296.63C1091.12,-283.16 1256.09,-256.86 1340.57,-243.39"/>
<polygon fill="black" stroke="black" points="1340.88,-246.88 1350.2,-241.85 1339.77,-239.97 1340.88,-246.88"/>
</g>
<!-- bedgraph_results&#45;&gt;s6_multiqc -->
<g id="edge41" class="edge">
<title>bedgraph_results&#45;&gt;s6_multiqc</title>
<path fill="none" stroke="black" d="M944.59,-289.32C922.14,-253.07 865.98,-164.92 838.18,-144 810.82,-123.41 774.73,-110.27 745.04,-102.23"/>
<polygon fill="black" stroke="black" points="746.02,-98.87 735.47,-99.76 744.28,-105.64 746.02,-98.87"/>
</g>
<!-- s7_fstitch -->
<g id="node34" class="node">
<title>s7_fstitch</title>
<polygon fill="none" stroke="black" points="1012.56,-252 935.81,-252 935.81,-216 1012.56,-216 1012.56,-252"/>
<text text-anchor="middle" x="974.18" y="-228.95" font-family="Times,serif" font-size="14.00">S7: FStitch</text>
</g>
<!-- bedgraph_results&#45;&gt;s7_fstitch -->
<g id="edge45" class="edge">
<title>bedgraph_results&#45;&gt;s7_fstitch</title>
<path fill="none" stroke="black" d="M958.92,-288.41C961.05,-280.96 963.62,-271.96 966.05,-263.48"/>
<polygon fill="black" stroke="black" points="969.4,-264.48 968.78,-253.9 962.67,-262.56 969.4,-264.48"/>
</g>
<!-- s8_tfit -->
<g id="node37" class="node">
<title>s8_tfit</title>
<polygon fill="none" stroke="black" points="1397.93,-108 1332.43,-108 1332.43,-72 1397.93,-72 1397.93,-108"/>
<text text-anchor="middle" x="1365.18" y="-84.95" font-family="Times,serif" font-size="14.00">S8: TFIT</text>
</g>
<!-- bedgraph_results&#45;&gt;s8_tfit -->
<g id="edge48" class="edge">
<title>bedgraph_results&#45;&gt;s8_tfit</title>
<path fill="none" stroke="black" d="M1029.35,-300.46C1157.76,-292.18 1408.93,-273.48 1443.18,-252 1487.24,-224.37 1516.77,-187.44 1488.18,-144 1470.77,-117.54 1437.06,-104.23 1409.33,-97.57"/>
<polygon fill="black" stroke="black" points="1410.26,-94.19 1399.74,-95.5 1408.78,-101.03 1410.26,-94.19"/>
</g>
<!-- bedgraph_results&#45;&gt;s4_nqc -->
<g id="edge56" class="edge">
<title>bedgraph_results&#45;&gt;s4_nqc</title>
<path fill="none" stroke="black" d="M876.35,-300.95C801.46,-295.52 685.33,-283.07 578.35,-252.13"/>
<polygon fill="black" stroke="black" points="579.4,-248.79 568.81,-249.31 577.41,-255.5 579.4,-248.79"/>
</g>
<!-- s5pp_normalize_bigwig -->
<g id="node28" class="node">
<title>s5pp_normalize_bigwig</title>
<polygon fill="none" stroke="black" points="1475.93,-396 1320.43,-396 1320.43,-360 1475.93,-360 1475.93,-396"/>
<text text-anchor="middle" x="1398.18" y="-372.95" font-family="Times,serif" font-size="14.00">S5pp: Normalize BigWig</text>
</g>
<!-- s5p_bigwig&#45;&gt;s5pp_normalize_bigwig -->
<g id="edge28" class="edge">
<title>s5p_bigwig&#45;&gt;s5pp_normalize_bigwig</title>
<path fill="none" stroke="black" d="M1425.28,-431.7C1421.32,-423.98 1416.55,-414.71 1412.13,-406.11"/>
<polygon fill="black" stroke="black" points="1415.36,-404.74 1407.67,-397.45 1409.13,-407.94 1415.36,-404.74"/>
</g>
<!-- chrom_sizes -->
<g id="node27" class="node">
<title>chrom_sizes</title>
<polygon fill="green" stroke="black" points="1362.18,-540 1280.88,-522 1362.18,-504 1443.49,-522 1362.18,-540"/>
<text text-anchor="middle" x="1362.18" y="-516.95" font-family="Times,serif" font-size="14.00">chrom_sizes</text>
</g>
<!-- chrom_sizes&#45;&gt;s5p_bigwig -->
<g id="edge27" class="edge">
<title>chrom_sizes&#45;&gt;s5p_bigwig</title>
<path fill="none" stroke="black" d="M1376.75,-506.83C1385.77,-498.07 1397.6,-486.57 1408.18,-476.28"/>
<polygon fill="black" stroke="black" points="1410.5,-478.9 1415.23,-469.42 1405.62,-473.88 1410.5,-478.9"/>
</g>
<!-- chrom_sizes&#45;&gt;s5pp_normalize_bigwig -->
<g id="edge29" class="edge">
<title>chrom_sizes&#45;&gt;s5pp_normalize_bigwig</title>
<path fill="none" stroke="black" d="M1365.2,-504.48C1368.59,-486.52 1374.51,-457.04 1381.18,-432 1383.38,-423.75 1386.09,-414.88 1388.69,-406.8"/>
<polygon fill="black" stroke="black" points="1391.95,-408.09 1391.76,-397.49 1385.3,-405.9 1391.95,-408.09"/>
</g>
<!-- normalized_bigwig -->
<g id="node29" class="node">
<title>normalized_bigwig</title>
<polygon fill="none" stroke="black" points="1398.18,-324 1280.69,-306 1398.18,-288 1515.68,-306 1398.18,-324"/>
<text text-anchor="middle" x="1398.18" y="-300.95" font-family="Times,serif" font-size="14.00">normalized_bigwig</text>
</g>
<!-- s5pp_normalize_bigwig&#45;&gt;normalized_bigwig -->
<g id="edge30" class="edge">
<title>s5pp_normalize_bigwig&#45;&gt;normalized_bigwig</title>
<path fill="none" stroke="black" d="M1398.18,-359.7C1398.18,-352.41 1398.18,-343.73 1398.18,-335.54"/>
<polygon fill="black" stroke="black" points="1401.68,-335.62 1398.18,-325.62 1394.68,-335.62 1401.68,-335.62"/>
</g>
<!-- normalized_bigwig&#45;&gt;s5ppp_igv -->
<g id="edge31" class="edge">
<title>normalized_bigwig&#45;&gt;s5ppp_igv</title>
<path fill="none" stroke="black" d="M1396.95,-287.7C1396.43,-280.41 1395.81,-271.73 1395.22,-263.54"/>
<polygon fill="black" stroke="black" points="1398.72,-263.34 1394.51,-253.61 1391.73,-263.84 1398.72,-263.34"/>
</g>
<!-- normalized_bigwig&#45;&gt;s6_multiqc -->
<g id="edge42" class="edge">
<title>normalized_bigwig&#45;&gt;s6_multiqc</title>
<path fill="none" stroke="black" d="M1417.19,-290.63C1454.76,-260.57 1531.29,-190.06 1488.18,-144 1462.81,-116.89 922.51,-98.08 745.66,-92.63"/>
<polygon fill="black" stroke="black" points="745.92,-89.13 735.82,-92.33 745.71,-96.13 745.92,-89.13"/>
</g>
<!-- tiled_data_ch -->
<g id="node31" class="node">
<title>tiled_data_ch</title>
<polygon fill="none" stroke="black" points="1393.18,-180 1307.53,-162 1393.18,-144 1478.83,-162 1393.18,-180"/>
<text text-anchor="middle" x="1393.18" y="-156.95" font-family="Times,serif" font-size="14.00">tiled_data_ch</text>
</g>
<!-- s5ppp_igv&#45;&gt;tiled_data_ch -->
<g id="edge33" class="edge">
<title>s5ppp_igv&#45;&gt;tiled_data_ch</title>
<path fill="none" stroke="black" d="M1393.18,-215.7C1393.18,-208.41 1393.18,-199.73 1393.18,-191.54"/>
<polygon fill="black" stroke="black" points="1396.68,-191.62 1393.18,-181.62 1389.68,-191.62 1396.68,-191.62"/>
</g>
<!-- tiled_data_ch&#45;&gt;s6_multiqc -->
<g id="edge43" class="edge">
<title>tiled_data_ch&#45;&gt;s6_multiqc</title>
<path fill="none" stroke="black" d="M1350.75,-152.56C1334.37,-149.53 1315.46,-146.29 1298.18,-144 1095.45,-117.08 852.8,-100.63 745.67,-94.16"/>
<polygon fill="black" stroke="black" points="745.91,-90.67 735.71,-93.56 745.49,-97.65 745.91,-90.67"/>
</g>
<!-- multiqc_report -->
<g id="node33" class="node">
<title>multiqc_report</title>
<polygon fill="none" stroke="black" points="690.18,-36 596.57,-18 690.18,0 783.8,-18 690.18,-36"/>
<text text-anchor="middle" x="690.18" y="-12.95" font-family="Times,serif" font-size="14.00">multiqc_report</text>
</g>
<!-- s6_multiqc&#45;&gt;multiqc_report -->
<g id="edge44" class="edge">
<title>s6_multiqc&#45;&gt;multiqc_report</title>
<path fill="none" stroke="black" d="M690.18,-71.7C690.18,-64.41 690.18,-55.73 690.18,-47.54"/>
<polygon fill="black" stroke="black" points="693.68,-47.62 690.18,-37.62 686.68,-47.62 693.68,-47.62"/>
</g>
<!-- fstitch_results -->
<g id="node35" class="node">
<title>fstitch_results</title>
<polygon fill="none" stroke="black" points="974.18,-180 885.64,-162 974.18,-144 1062.73,-162 974.18,-180"/>
<text text-anchor="middle" x="974.18" y="-156.95" font-family="Times,serif" font-size="14.00">fstitch_results</text>
</g>
<!-- s7_fstitch&#45;&gt;fstitch_results -->
<g id="edge46" class="edge">
<title>s7_fstitch&#45;&gt;fstitch_results</title>
<path fill="none" stroke="black" d="M974.18,-215.7C974.18,-208.41 974.18,-199.73 974.18,-191.54"/>
<polygon fill="black" stroke="black" points="977.68,-191.62 974.18,-181.62 970.68,-191.62 977.68,-191.62"/>
</g>
<!-- fstitch_bidir_bed -->
<g id="node36" class="node">
<title>fstitch_bidir_bed</title>
<polygon fill="none" stroke="black" points="1185.18,-180 1080.71,-162 1185.18,-144 1289.65,-162 1185.18,-180"/>
<text text-anchor="middle" x="1185.18" y="-156.95" font-family="Times,serif" font-size="14.00">fstitch_bidir_bed</text>
</g>
<!-- s7_fstitch&#45;&gt;fstitch_bidir_bed -->
<g id="edge47" class="edge">
<title>s7_fstitch&#45;&gt;fstitch_bidir_bed</title>
<path fill="none" stroke="black" d="M1012.88,-220.16C1048.73,-208.27 1102.04,-190.58 1139.86,-178.04"/>
<polygon fill="black" stroke="black" points="1140.75,-181.43 1149.14,-174.96 1138.54,-174.79 1140.75,-181.43"/>
</g>
<!-- fstitch_bidir_bed&#45;&gt;s8_tfit -->
<g id="edge49" class="edge">
<title>fstitch_bidir_bed&#45;&gt;s8_tfit</title>
<path fill="none" stroke="black" d="M1216.13,-148.97C1245.21,-137.66 1289.01,-120.62 1321.62,-107.94"/>
<polygon fill="black" stroke="black" points="1322.75,-111.26 1330.8,-104.37 1320.21,-104.73 1322.75,-111.26"/>
</g>
<!-- tfit_bed -->
<g id="node38" class="node">
<title>tfit_bed</title>
<polygon fill="none" stroke="black" points="1365.18,-36 1309.21,-18 1365.18,0 1421.16,-18 1365.18,-36"/>
<text text-anchor="middle" x="1365.18" y="-12.95" font-family="Times,serif" font-size="14.00">tfit_bed</text>
</g>
<!-- s8_tfit&#45;&gt;tfit_bed -->
<g id="edge50" class="edge">
<title>s8_tfit&#45;&gt;tfit_bed</title>
<path fill="none" stroke="black" d="M1365.18,-71.7C1365.18,-64.41 1365.18,-55.73 1365.18,-47.54"/>
<polygon fill="black" stroke="black" points="1368.68,-47.62 1365.18,-37.62 1361.68,-47.62 1368.68,-47.62"/>
</g>
<!-- multicov_count_bed -->
<g id="node40" class="node">
<title>multicov_count_bed</title>
<polygon fill="none" stroke="black" points="1626.18,-396 1502.9,-378 1626.18,-360 1749.47,-378 1626.18,-396"/>
<text text-anchor="middle" x="1626.18" y="-372.95" font-family="Times,serif" font-size="14.00">multicov_count_bed</text>
</g>
<!-- s10_multicov&#45;&gt;multicov_count_bed -->
<g id="edge52" class="edge">
<title>s10_multicov&#45;&gt;multicov_count_bed</title>
<path fill="none" stroke="black" d="M1609.62,-431.7C1612,-424.13 1614.85,-415.06 1617.51,-406.59"/>
<polygon fill="black" stroke="black" points="1620.85,-407.66 1620.51,-397.07 1614.17,-405.56 1620.85,-407.66"/>
</g>
<!-- s10p_merge_multicov -->
<g id="node41" class="node">
<title>s10p_merge_multicov</title>
<polygon fill="none" stroke="black" points="1707.31,-324 1563.06,-324 1563.06,-288 1707.31,-288 1707.31,-324"/>
<text text-anchor="middle" x="1635.18" y="-300.95" font-family="Times,serif" font-size="14.00">S10p: Merge MultiCov</text>
</g>
<!-- multicov_count_bed&#45;&gt;s10p_merge_multicov -->
<g id="edge53" class="edge">
<title>multicov_count_bed&#45;&gt;s10p_merge_multicov</title>
<path fill="none" stroke="black" d="M1628.36,-360.05C1629.31,-352.68 1630.45,-343.84 1631.52,-335.51"/>
<polygon fill="black" stroke="black" points="1634.97,-336.14 1632.77,-325.78 1628.02,-335.25 1634.97,-336.14"/>
</g>
<!-- merged_multicov -->
<g id="node42" class="node">
<title>merged_multicov</title>
<polygon fill="none" stroke="black" points="1644.18,-252 1535.37,-234 1644.18,-216 1753,-234 1644.18,-252"/>
<text text-anchor="middle" x="1644.18" y="-228.95" font-family="Times,serif" font-size="14.00">merged_multicov</text>
</g>
<!-- s10p_merge_multicov&#45;&gt;merged_multicov -->
<g id="edge54" class="edge">
<title>s10p_merge_multicov&#45;&gt;merged_multicov</title>
<path fill="none" stroke="black" d="M1637.41,-287.7C1638.36,-280.32 1639.49,-271.52 1640.55,-263.25"/>
<polygon fill="black" stroke="black" points="1643.99,-263.97 1641.79,-253.61 1637.04,-263.08 1643.99,-263.97"/>
</g>
<!-- nqc_results -->
<g id="node44" class="node">
<title>nqc_results</title>
<polygon fill="none" stroke="black" points="532.18,-180 457.39,-162 532.18,-144 606.98,-162 532.18,-180"/>
<text text-anchor="middle" x="532.18" y="-156.95" font-family="Times,serif" font-size="14.00">nqc_results</text>
</g>
<!-- s4_nqc&#45;&gt;nqc_results -->
<g id="edge58" class="edge">
<title>s4_nqc&#45;&gt;nqc_results</title>
<path fill="none" stroke="black" d="M538.21,-215.7C537.35,-208.21 536.33,-199.26 535.37,-190.88"/>
<polygon fill="black" stroke="black" points="538.87,-190.66 534.26,-181.13 531.91,-191.46 538.87,-190.66"/>
</g>
</g>
</svg>
